<mxfile host="app.diagrams.net" modified="2023-11-04T19:41:23.003Z" agent="Mozilla/5.0 (X11; Linux x86_64) AppleWebKit/537.36 (KHTML, like Gecko) Chrome/118.0.0.0 Safari/537.36" version="22.0.8" etag="Z4XuT0L1uhgYJ6frPjW7" type="github">
  <diagram name="PÃ¡gina-1" id="IYV3xt2IMYOGcfOYaRr-">
    <mxGraphModel>
      <root>
        <mxCell id="0" />
        <mxCell id="1" parent="0" />
      </root>
    </mxGraphModel>
  </diagram>
</mxfile>
